<svg width="551" height="480" viewBox="0 0 551 480" fill="none" xmlns="http://www.w3.org/2000/svg">
<path d="M25 347.889H246.599V184.423H25V347.889Z" fill="#F5F9FF"/>
<path d="M246.194 203.756H24.5958V183.368H246.194V203.756Z" fill="#94CD27"/>
<path d="M42.3855 194.032C42.3855 196.609 40.2965 198.699 37.7194 198.699C35.1429 198.699 33.0543 196.609 33.0543 194.032C33.0543 191.456 35.1429 189.367 37.7194 189.367C40.2965 189.367 42.3855 191.456 42.3855 194.032Z" fill="#F2F2F2"/>
<path d="M58.0958 194.032C58.0958 196.609 56.0073 198.699 53.4302 198.699C50.8537 198.699 48.7646 196.609 48.7646 194.032C48.7646 191.456 50.8537 189.367 53.4302 189.367C56.0073 189.367 58.0958 191.456 58.0958 194.032Z" fill="#F2F2F2"/>
<path d="M73.8068 194.032C73.8068 196.609 71.7182 198.699 69.1406 198.699C66.5641 198.699 64.4756 196.609 64.4756 194.032C64.4756 191.456 66.5641 189.367 69.1406 189.367C71.7182 189.367 73.8068 191.456 73.8068 194.032Z" fill="#F2F2F2"/>
<path d="M139.665 242.563L128.524 231.423L101.833 258.113L75.1413 231.423L64 242.563L90.692 269.253L64 295.944L75.1413 307.084L101.833 280.393L128.524 307.084L139.665 295.944L112.973 269.253L139.665 242.563Z" fill="#BFE27D"/>
<path d="M517.597 101.811H296V81.4225H517.597V101.811Z" fill="#94CD27"/>
<path d="M314.417 90.932C314.417 93.5093 312.326 95.5986 309.75 95.5986C307.173 95.5986 305.085 93.5093 305.085 90.932C305.085 88.3546 307.173 86.2666 309.75 86.2666C312.326 86.2666 314.417 88.3546 314.417 90.932Z" fill="#F2F2F2"/>
<path d="M330.128 90.932C330.128 93.5093 328.038 95.5986 325.461 95.5986C322.884 95.5986 320.796 93.5093 320.796 90.932C320.796 88.3546 322.884 86.2666 325.461 86.2666C328.038 86.2666 330.128 88.3546 330.128 90.932Z" fill="#F2F2F2"/>
<path d="M345.838 90.932C345.838 93.5093 343.749 95.5986 341.172 95.5986C338.596 95.5986 336.506 93.5093 336.506 90.932C336.506 88.3546 338.596 86.2666 341.172 86.2666C343.749 86.2666 345.838 88.3546 345.838 90.932Z" fill="#F2F2F2"/>
<path d="M445.26 145.119L434.118 133.977L407.428 160.668L380.734 133.977L369.594 145.119L396.285 171.808L369.594 198.499L380.734 209.64L407.428 182.949L434.118 209.64L445.26 198.499L418.568 171.808L445.26 145.119Z" fill="#BFE27D"/>
<path d="M544.685 455.653C544.685 468.58 423.405 479.059 273.798 479.059C124.192 479.059 2.91089 468.58 2.91089 455.653C2.91089 442.724 124.192 432.245 273.798 432.245C423.405 432.245 544.685 442.724 544.685 455.653Z" fill="#EDF0FC"/>
<path d="M216.302 97.5881C214.642 97.0014 213.418 95.8801 212.63 94.2267C211.821 92.5321 211.714 90.8654 212.314 89.2267C212.909 87.5894 214.057 86.3654 215.752 85.5561C217.405 84.7681 219.082 84.6574 220.785 85.2241C222.485 85.7934 223.732 86.9014 224.52 88.5548C225.308 90.2081 225.386 91.8748 224.758 93.5534C224.129 95.2321 222.986 96.4668 221.333 97.2548C219.638 98.0641 217.96 98.1761 216.302 97.5881ZM207.734 82.9828C205.67 78.6588 205.78 74.4694 208.06 70.4148L209.168 68.4828C210.25 66.7174 210.944 65.3601 211.244 64.4094C211.545 63.4601 211.464 62.4961 210.998 61.5214C209.826 59.0628 207.182 58.8148 203.072 60.7761C201.164 61.6868 199.314 62.8814 197.522 64.3601C195.732 65.8387 194.146 67.4814 192.768 69.2814L188.097 59.4908C191.146 55.8508 195.089 52.8774 199.921 50.5721C205.134 48.0841 209.789 47.2041 213.881 47.9321C217.974 48.6587 220.941 50.9508 222.781 54.8068C223.812 56.9694 224.158 58.9494 223.822 60.7494C223.482 62.5508 222.542 64.8334 221 67.5987C219.978 69.4921 219.253 70.9174 218.825 71.8761C218.398 72.8348 218.186 73.7801 218.19 74.7148C218.194 75.6508 218.46 76.6694 218.985 77.7708L219.561 78.9788L208.37 84.3174L207.734 82.9828Z" fill="#E2E6FF"/>
<path d="M254.256 69.9068C253.249 67.4548 253.28 64.9561 254.346 62.4121C255.437 59.8041 257.204 58.0134 259.644 57.0428C262.08 56.0694 264.605 56.1308 267.214 57.2228C269.757 58.2881 271.564 60.0601 272.634 62.5401C273.702 65.0201 273.706 67.5308 272.641 70.0748C271.576 72.6188 269.781 74.3801 267.268 75.3561C264.749 76.3321 262.217 76.2881 259.674 75.2228C257.066 74.1308 255.257 72.3574 254.256 69.9068ZM262.062 45.6361C264.849 38.9828 269.662 34.9041 276.502 33.3974L279.782 32.7041C282.852 32.1508 285.07 31.5655 286.44 30.9508C287.808 30.3361 288.809 29.2801 289.437 27.7788C291.022 23.9961 288.649 20.7774 282.324 18.1281C279.388 16.9001 276.192 16.0201 272.732 15.4921C269.276 14.9628 265.842 14.8308 262.437 15.0894L268.748 0.0227584C275.894 -0.202575 283.188 1.24276 290.622 4.35609C298.645 7.71742 304.301 12.0601 307.589 17.3841C310.878 22.7121 311.278 28.3414 308.793 34.2748C307.4 37.6014 305.524 39.9774 303.164 41.4041C300.802 42.8294 297.296 44.0628 292.645 45.1054C289.492 45.8561 287.164 46.4708 285.658 46.9521C284.156 47.4348 282.88 48.1441 281.833 49.0868C280.786 50.0295 279.909 51.3494 279.2 53.0428L278.421 54.9028L261.202 47.6908L262.062 45.6361Z" fill="#E2E6FF"/>
<path d="M541.408 285.581V277.927H536.32V285.581H528.664V290.669H536.32V298.325H541.408V290.669H549.062V285.581H541.408Z" fill="#94CD27"/>
<path d="M493.341 40.5547V28.88H485.58V40.5547H473.905V48.316H485.58V59.9907H493.341V48.316H505.017V40.5547H493.341Z" fill="#94CD27"/>
<path d="M472.185 266.527V260.952H468.478V266.527H462.904V270.233H468.478V275.808H472.185V270.233H477.761V266.527H472.185Z" fill="#94CD27"/>
<path d="M154.282 72.6201V67.0454H150.576V72.6201H145.001V76.3267H150.576V81.9014H154.282V76.3267H159.857V72.6201H154.282Z" fill="#94CD27"/>
<path d="M111.308 35.752V28.096H106.218V35.752H98.5636V40.84H106.218V48.4946H111.308V40.84H118.964V35.752H111.308Z" fill="#94CD27"/>
<path d="M362.681 51.3813C362.681 52.988 361.378 54.292 359.77 54.292C358.162 54.292 356.86 52.988 356.86 51.3813C356.86 49.772 358.162 48.4693 359.77 48.4693C361.378 48.4693 362.681 49.772 362.681 51.3813Z" fill="#EEF1FF"/>
<path d="M436.984 25.2613C436.984 28.3053 434.514 30.7747 431.47 30.7747C428.426 30.7747 425.958 28.3053 425.958 25.2613C425.958 22.2173 428.426 19.7493 431.47 19.7493C434.514 19.7493 436.984 22.2173 436.984 25.2613Z" fill="#EEF1FF"/>
<path d="M547.597 232.319C547.597 233.927 546.293 235.229 544.685 235.229C543.078 235.229 541.774 233.927 541.774 232.319C541.774 230.711 543.078 229.407 544.685 229.407C546.293 229.407 547.597 230.711 547.597 232.319Z" fill="#EEF1FF"/>
<path d="M544.685 323.204C544.685 324.812 543.381 326.115 541.774 326.115C540.166 326.115 538.864 324.812 538.864 323.204C538.864 321.596 540.166 320.293 541.774 320.293C543.381 320.293 544.685 321.596 544.685 323.204Z" fill="#EEF1FF"/>
<path d="M101.474 164.244C101.474 165.852 100.172 167.156 98.5636 167.156C96.9569 167.156 95.653 165.852 95.653 164.244C95.653 162.636 96.9569 161.333 98.5636 161.333C100.172 161.333 101.474 162.636 101.474 164.244Z" fill="#EEF1FF"/>
<path d="M56.3229 43.5161C56.3229 46.5601 53.8548 49.0281 50.81 49.0281C47.7658 49.0281 45.2975 46.5601 45.2975 43.5161C45.2975 40.4708 47.7658 38.0028 50.81 38.0028C53.8548 38.0028 56.3229 40.4708 56.3229 43.5161Z" fill="#EEF1FF"/>
<path d="M5.822 186.988C5.822 188.596 4.5188 189.899 2.91093 189.899C1.30373 189.899 0 188.596 0 186.988C0 185.381 1.30373 184.077 2.91093 184.077C4.5188 184.077 5.822 185.381 5.822 186.988Z" fill="#EEF1FF"/>
<path d="M5.822 342.112C5.822 343.72 4.5188 345.024 2.91093 345.024C1.30373 345.024 0 343.72 0 342.112C0 340.505 1.30373 339.203 2.91093 339.203C4.5188 339.203 5.822 340.505 5.822 342.112Z" fill="#EEF1FF"/>
<path d="M430.241 429.771C430.241 429.771 382.002 333.332 512.84 269.325C512.84 269.325 522.87 406.748 430.241 429.771Z" fill="#9FCE45"/>
<path d="M435.797 417.484C435.765 403.697 438.645 390.001 442.614 376.787C443.124 375.136 443.578 373.463 444.136 371.825L445.905 366.951L447.684 362.073L449.693 357.289C452.277 350.861 455.525 344.745 458.59 338.541L463.806 329.571C465.488 326.547 467.396 323.664 469.333 320.801C471.29 317.952 473.146 315.035 475.185 312.248C477.265 309.491 479.38 306.759 481.504 304.041L484.688 299.964L488.109 296.081L494.998 288.379C496.128 287.08 497.384 285.896 498.617 284.693L502.325 281.1C504.802 278.713 507.305 276.356 509.821 274.025C507.66 276.708 505.486 279.364 503.286 281.991L499.981 285.916C498.877 287.22 497.749 288.503 496.753 289.899L490.517 298.031L487.377 302.064L484.45 306.26C482.512 309.063 480.562 311.853 478.581 314.619C476.661 317.427 474.932 320.361 473.098 323.223C469.292 328.865 466.164 334.911 462.749 340.781C456.373 352.776 450.75 365.164 446.102 377.943C441.546 390.745 437.717 403.881 435.797 417.484Z" fill="#94CD27"/>
<path d="M431.612 425.655C431.612 425.655 431.585 425.6 431.533 425.492L434.501 406.768C435.144 406.511 435.777 406.249 436.409 405.98C436.005 409.803 435.788 413.639 435.797 417.484C436.377 413.372 437.133 409.301 438.029 405.271C443.742 402.703 448.985 399.62 453.808 396.112C445.466 406.479 438.981 416.311 433.977 425.036C433.196 425.252 432.409 425.457 431.612 425.655Z" fill="#9FCE45"/>
<path d="M435.797 417.484C435.788 413.639 436.005 409.803 436.409 405.98C436.95 405.751 437.497 405.511 438.029 405.271C437.133 409.301 436.377 413.372 435.797 417.484Z" fill="#9FCE45"/>
<path d="M502.578 354.1C515.97 312.224 512.84 269.325 512.84 269.325C511.108 270.172 509.398 271.029 507.728 271.889C507.812 270.659 507.884 269.485 507.945 268.375C509.989 267.312 512.074 266.256 514.212 265.209C514.212 265.209 517.55 310.969 502.578 354.1Z" fill="#9CC74A"/>
<path d="M475.764 373.868C498.113 343.157 505.133 301.872 507.317 277.113C508.154 276.088 508.988 275.059 509.821 274.025C509.008 274.777 508.197 275.533 507.388 276.291C507.518 274.755 507.632 273.284 507.728 271.889C509.398 271.029 511.108 270.172 512.84 269.325C512.84 269.325 515.97 312.224 502.578 354.1C502.09 355.505 501.584 356.909 501.056 358.307C492.834 361.763 484.23 366.991 475.764 373.868Z" fill="#9FCE45"/>
<path d="M507.317 277.113C507.341 276.836 507.365 276.565 507.388 276.291C508.197 275.533 509.008 274.777 509.821 274.025C508.988 275.059 508.154 276.088 507.317 277.113Z" fill="#9FCE45"/>
<path d="M418.437 460.811C418.437 460.811 425.301 431.444 454.012 395.859C485.469 356.872 526.489 342.843 543.517 361.583C560.045 379.771 546.004 404.9 503.429 417.741C460.853 430.583 436.782 436.115 418.437 460.811Z" fill="#FFCF74"/>
<path d="M530.036 371.792C520.294 375.647 510.858 380.115 501.592 384.848C492.352 389.636 483.332 394.823 474.725 400.615C466.092 406.36 457.873 412.717 450.249 419.744C442.654 426.799 435.692 434.557 429.674 443.149C432.102 438.503 434.966 434.077 438.068 429.815C441.27 425.635 444.664 421.573 448.394 417.836C455.782 410.283 464.088 403.671 472.832 397.783C477.24 394.887 481.729 392.123 486.329 389.557C490.957 387.044 495.636 384.624 500.433 382.465C509.992 378.089 519.876 374.396 530.036 371.792Z" fill="#F9AB43"/>
<path d="M418.437 460.811V460.809C418.438 460.803 418.457 460.722 418.496 460.572C418.548 460.556 418.6 460.539 418.652 460.521C418.58 460.617 418.508 460.713 418.437 460.811ZM427.572 450.473C427.582 450.416 427.592 450.358 427.601 450.301L430.645 431.096C432.922 426.788 435.589 422.133 438.697 417.216C442.32 417.213 445.902 417.068 449.432 416.788C449.085 417.136 448.738 417.485 448.394 417.836C444.664 421.573 441.27 425.635 438.068 429.815C434.966 434.077 432.102 438.503 429.674 443.149C435.692 434.557 442.654 426.799 450.249 419.744C451.498 418.592 452.764 417.459 454.044 416.344C494.873 411.699 528.229 388.969 540.529 358.84C541.588 359.665 542.594 360.567 543.517 361.583C548.029 366.547 550.262 372.029 550.26 377.636C550.254 392.573 534.384 408.405 503.429 417.741C467.552 428.561 444.816 434.193 427.572 450.473Z" fill="#E5C178"/>
<path d="M429.674 443.149C432.102 438.503 434.966 434.077 438.068 429.815C441.27 425.635 444.664 421.573 448.394 417.836C448.738 417.485 449.085 417.136 449.432 416.788C450.98 416.665 452.517 416.517 454.044 416.344C452.764 417.459 451.498 418.592 450.249 419.744C442.654 426.799 435.692 434.557 429.674 443.149Z" fill="#E0A14C"/>
<path d="M171.342 444.318C171.342 444.318 72.2505 486.839 15.9969 352.485C15.9969 352.485 153.772 350.501 171.342 444.318Z" fill="#9FCE45"/>
<path d="M163.429 439.661C149.665 438.889 136.161 435.213 123.201 430.48C121.582 429.875 119.938 429.323 118.337 428.671L113.573 426.619L108.809 424.559L104.15 422.273C97.8836 419.319 91.9689 415.719 85.9529 412.296L77.3036 406.565C74.3824 404.712 71.6162 402.636 68.8709 400.535C66.1412 398.415 63.3365 396.392 60.6745 394.193C58.0438 391.956 55.4401 389.687 52.85 387.407L48.9666 383.989L45.2906 380.347L38.0032 373.019C36.7729 371.817 35.6647 370.493 34.536 369.192L31.1657 365.28C28.9266 362.667 26.7209 360.032 24.5406 357.384C27.0917 359.699 29.6177 362.024 32.11 364.373L35.8365 367.903C37.0745 369.081 38.289 370.281 39.6245 371.357L47.3772 378.057L51.2209 381.429L55.2376 384.595C57.9234 386.693 60.5948 388.801 63.2396 390.941C65.9308 393.021 68.7594 394.923 71.5094 396.919C76.9196 401.047 82.7716 404.524 88.4329 408.275C100.036 415.341 112.073 421.679 124.56 427.065C137.073 432.361 149.964 436.951 163.429 439.661Z" fill="#94CD27"/>
<path d="M16.2882 353.177C16.1907 352.948 16.0939 352.716 15.9969 352.485C16.0928 352.715 16.1918 352.949 16.2882 353.177ZM17.7292 352.487H17.7276C17.7287 352.487 17.7287 352.487 17.7292 352.487ZM15.9969 352.485C15.9969 352.485 16.2224 352.481 16.6595 352.481C16.224 352.481 15.9969 352.485 15.9969 352.485ZM17.4625 352.485C17.4464 352.485 17.4281 352.484 17.412 352.484C17.4292 352.484 17.4453 352.485 17.4625 352.485ZM17.1401 352.483C17.1381 352.483 17.1339 352.483 17.1313 352.483C17.1344 352.483 17.1371 352.483 17.1401 352.483Z" fill="#9CC74A"/>
<path d="M122.514 397.456C93.1423 373.172 52.148 363.703 27.4772 360.064C26.5021 359.169 25.5229 358.276 24.5407 357.384C25.2443 358.24 25.9516 359.093 26.6609 359.945C23.7907 359.531 21.15 359.196 18.7896 358.927C17.9475 357.047 17.1126 355.133 16.2882 353.177C16.1918 352.949 16.0928 352.715 15.9969 352.485C15.9969 352.485 16.224 352.481 16.6595 352.481C16.7043 352.481 16.7511 352.481 16.8 352.481C16.8281 352.481 16.8579 352.481 16.8876 352.481C16.8912 352.481 16.8939 352.481 16.898 352.481C16.9235 352.483 16.95 352.483 16.9772 352.483C16.9833 352.483 16.9907 352.483 16.9969 352.483C17.0177 352.483 17.0391 352.483 17.0605 352.483C17.0647 352.483 17.0677 352.483 17.072 352.483C17.0907 352.483 17.1115 352.483 17.1313 352.483C17.1339 352.483 17.1381 352.483 17.1401 352.483C17.1595 352.483 17.1782 352.483 17.1975 352.483C17.2016 352.483 17.2068 352.483 17.2109 352.483C17.2417 352.484 17.2729 352.484 17.3053 352.484C17.3339 352.484 17.3631 352.484 17.3934 352.484C17.3991 352.484 17.4063 352.484 17.412 352.484C17.4281 352.484 17.4464 352.485 17.4625 352.485C17.5209 352.485 17.5803 352.485 17.6412 352.487C17.6433 352.487 17.6443 352.487 17.6464 352.487C17.6729 352.487 17.7005 352.487 17.7276 352.487H17.7292C24.6573 352.555 51.3985 353.359 80.7929 361.399C98.9063 371.692 112.133 380.504 121.754 393.168L122.514 397.456Z" fill="#9FCE45"/>
<path d="M27.4772 360.064C27.201 360.024 26.9329 359.984 26.6609 359.945C25.9516 359.093 25.2442 358.24 24.5406 357.384C25.5229 358.276 26.5021 359.169 27.4772 360.064Z" fill="#9FCE45"/>
<path d="M130.59 408.117C130.59 408.117 130.108 377.964 109.593 337.101C87.1156 292.329 50.0021 269.927 29.3881 284.629C9.37867 298.9 17.7756 326.436 56.6609 348.011C95.5476 369.585 117.897 380.095 130.59 408.117Z" fill="#FFCF74"/>
<path d="M40.3986 297.465C49.1022 303.296 57.3767 309.664 65.4298 316.253C73.4434 322.891 81.1583 329.873 88.3409 337.357C95.5623 344.803 102.246 352.759 108.208 361.24C114.134 369.745 119.293 378.804 123.352 388.476C121.965 383.42 120.104 378.488 117.976 373.664C115.733 368.901 113.277 364.212 110.424 359.769C104.805 350.823 98.0903 342.6 90.7929 334.992C87.0996 331.228 83.297 327.575 79.345 324.092C75.3556 320.653 71.297 317.299 67.0672 314.171C58.6538 307.868 49.7767 302.163 40.3986 297.465Z" fill="#F9AB43"/>
<path d="M29.3882 284.629C29.4011 284.62 29.4142 284.611 29.4272 284.601C29.4147 284.611 29.4006 284.62 29.3882 284.629Z" fill="#DCE7F5"/>
<path d="M121.754 393.168C108.289 375.444 87.7649 365.268 56.6614 348.011C17.7756 326.436 9.37864 298.9 29.3881 284.629C29.4005 284.62 29.4146 284.611 29.4272 284.601C30.5324 283.817 31.6938 283.157 32.889 282.584C38.5234 314.635 66.3042 343.919 105.22 357.113C106.234 358.475 107.23 359.851 108.208 361.24C112.353 367.189 116.122 373.408 119.402 379.919L121.754 393.168ZM118.51 374.892C118.334 374.481 118.156 374.073 117.976 373.664C115.733 368.901 113.277 364.212 110.424 359.769C110.162 359.353 109.898 358.939 109.632 358.525C111.696 359.148 113.793 359.727 115.913 360.256L118.51 374.892Z" fill="#E5C178"/>
<path d="M119.402 379.919C116.122 373.408 112.353 367.189 108.208 361.24C107.23 359.851 106.234 358.475 105.22 357.113C106.676 357.608 108.145 358.077 109.632 358.525C109.898 358.939 110.162 359.353 110.424 359.769C113.277 364.212 115.733 368.901 117.976 373.664C118.156 374.073 118.334 374.481 118.51 374.892L119.402 379.919Z" fill="#E0A14C"/>
<path d="M405.061 437.312C403.984 444.444 396.816 450.281 389.132 450.281H161.808C154.125 450.281 146.878 444.456 145.704 437.335L108.065 209.072C106.892 201.952 112.217 196.125 119.9 196.125H427.548C435.23 196.125 440.634 201.963 439.556 209.097L405.061 437.312Z" fill="#F9AB43"/>
<path d="M348.02 119.852H156.601V389.515H390.682V163.14L348.02 119.852Z" fill="#F1FFD6"/>
<path d="M348.02 119.852L390.994 162.827H348.02V119.852Z" fill="#DDFF9C"/>
<path d="M338.617 205.125L319.53 186.039L273.798 231.768L228.066 186.039L208.978 205.125L254.71 250.855L208.978 296.584L228.066 315.671L273.798 269.941L319.53 315.671L338.617 296.584L292.886 250.855L338.617 205.125Z" fill="#CFEF91"/>
<path d="M296.342 274.823C290.306 274.831 283.913 270.119 282.134 264.351L273.366 235.909C271.588 230.141 265.194 225.423 259.158 225.423H103.224C97.1875 225.423 93.1116 230.284 94.1662 236.228L132.229 450.711C133.284 456.653 139.085 461.517 145.121 461.517H415.238C421.274 461.517 426.985 456.64 427.932 450.679L454.124 285.432C455.069 279.471 450.904 274.599 444.868 274.607L296.342 274.823Z" fill="#FFCF74"/>
<path d="M260.541 404.365C258.37 402.197 257.286 399.516 257.286 396.324C257.286 393.051 258.37 390.349 260.541 388.221C262.706 386.095 265.432 385.029 268.704 385.029C271.894 385.029 274.617 386.113 276.869 388.281C279.117 390.453 280.244 393.132 280.244 396.324C280.244 399.516 279.117 402.197 276.869 404.365C274.617 406.535 271.894 407.617 268.704 407.617C265.432 407.617 262.706 406.535 260.541 404.365ZM258.022 374.963C258.022 366.615 261.338 360.107 267.966 355.44L271.158 353.232C274.186 351.271 276.294 349.653 277.482 348.384C278.666 347.116 279.264 345.541 279.264 343.659C279.264 338.912 275.29 336.537 267.353 336.537C263.669 336.537 259.865 337.029 255.936 338.011C252.009 338.992 248.284 340.385 244.765 342.184V323.277C252.293 319.84 260.724 318.123 270.053 318.123C280.121 318.123 288.102 320.231 293.993 324.445C299.886 328.661 302.832 334.492 302.832 341.937C302.832 346.112 301.89 349.489 300.01 352.067C298.126 354.645 294.934 357.529 290.434 360.72C287.405 362.932 285.194 364.631 283.804 365.817C282.412 367.004 281.369 368.332 280.674 369.807C279.977 371.28 279.63 373.081 279.63 375.208V377.543H258.022V374.963Z" fill="white"/>
<path d="M414.908 461.14H144.79C138.866 461.14 133.17 456.456 131.962 450.665C131.94 450.556 131.918 450.445 131.898 450.333L128.718 432.415L128.646 432.011C155.4 441.26 185.134 446.417 216.464 446.417C263.866 446.417 307.626 434.621 342.914 414.691C351.684 420.2 361.686 422.953 371.69 422.953C385.553 422.953 399.414 417.665 409.992 407.089C428.637 388.443 430.845 359.581 416.617 338.515C424.133 322.069 428.214 304.411 428.214 286.029C428.214 282.068 428.018 278.143 427.645 274.255L444.537 274.229C444.541 274.229 444.546 274.229 444.55 274.229C450.002 274.229 453.925 278.211 453.926 283.377C453.928 283.925 453.884 284.485 453.793 285.055L434.501 406.768L431.533 425.492L427.601 450.301C426.854 455.001 423.146 459.028 418.652 460.522C418.6 460.539 418.548 460.556 418.496 460.572H418.494C417.337 460.94 416.129 461.14 414.908 461.14Z" fill="#E5C178"/>
<path d="M147.532 420.896C146.036 420.896 144.362 419.937 144.132 418.395L144.092 418.125C143.638 416.06 143.461 413.892 143.149 411.803C142.485 407.352 141.822 402.903 141.158 398.452C139.16 385.057 137.162 371.663 135.165 358.269C132.838 342.668 130.512 327.065 128.185 311.464C126.274 298.653 124.364 285.841 122.454 273.029C121.65 267.645 120.848 262.261 120.045 256.877C119.77 255.039 120.477 253.199 122.44 252.659C122.7 252.587 122.976 252.552 123.26 252.552C124.756 252.552 126.429 253.512 126.658 255.053L126.698 255.324C127.153 257.388 127.33 259.556 127.641 261.647C128.305 266.097 128.969 270.547 129.633 274.996C131.63 288.391 133.628 301.785 135.625 315.179C137.952 330.78 140.278 346.383 142.605 361.985C144.516 374.796 146.426 387.607 148.337 400.42C149.14 405.804 149.942 411.188 150.746 416.572C151.02 418.411 150.314 420.251 148.35 420.791C148.092 420.863 147.814 420.896 147.532 420.896Z" fill="#FFDD9E"/>
<path d="M496.477 138.129C475.398 138.129 458.312 155.215 458.312 176.293C458.312 185.713 461.732 194.329 467.388 200.987L465.794 220.637L484.028 212.369C487.932 213.717 492.116 214.457 496.477 214.457C517.553 214.457 534.641 197.371 534.641 176.293C534.641 155.215 517.553 138.129 496.477 138.129Z" fill="#EB725F"/>
<path d="M491.68 152.904H501.286L499.501 183.635H493.465L491.68 152.904ZM493.834 195.829C493.137 195.131 492.788 194.269 492.788 193.243C492.788 192.217 493.137 191.355 493.834 190.657C494.534 189.959 495.394 189.608 496.421 189.608C497.448 189.608 498.32 189.959 499.04 190.657C499.757 191.355 500.117 192.217 500.117 193.243C500.117 194.269 499.757 195.131 499.04 195.829C498.32 196.527 497.448 196.876 496.421 196.876C495.394 196.876 494.534 196.527 493.834 195.829Z" fill="#F2F2F2"/>
<path d="M467.321 200.908C467.316 200.901 467.31 200.895 467.304 200.888C467.309 200.895 467.316 200.901 467.321 200.908ZM467.288 200.868C467.284 200.864 467.28 200.86 467.277 200.855C467.281 200.86 467.284 200.863 467.288 200.868Z" fill="#DCE7F5"/>
<path d="M465.794 220.637L467.388 200.987C467.37 200.965 467.352 200.944 467.333 200.921C467.329 200.917 467.325 200.912 467.321 200.908C467.316 200.901 467.309 200.895 467.304 200.888C467.298 200.881 467.293 200.875 467.288 200.868C467.284 200.863 467.281 200.86 467.277 200.855C467.269 200.845 467.26 200.836 467.252 200.825C465.848 199.155 464.588 197.36 463.484 195.465C467.384 196.151 471.426 196.516 475.569 196.516C481.613 196.516 487.444 195.748 492.933 194.321C493.097 194.889 493.397 195.392 493.834 195.829C494.534 196.527 495.394 196.876 496.421 196.876C497.448 196.876 498.32 196.527 499.04 195.829C499.757 195.131 500.117 194.269 500.117 193.243C500.117 192.828 500.058 192.439 499.94 192.077C515.005 186.297 526.69 175.324 531.808 161.86C533.608 166.261 534.617 171.069 534.641 176.113C534.641 176.116 534.641 176.116 534.641 176.117C534.641 176.136 534.641 176.155 534.641 176.172C534.641 176.177 534.641 176.183 534.641 176.188C534.641 176.203 534.641 176.217 534.641 176.232C534.641 176.253 534.641 176.272 534.641 176.293C534.641 197.371 517.553 214.457 496.477 214.457C492.116 214.457 487.932 213.717 484.028 212.369L465.794 220.637Z" fill="#D36E66"/>
<path d="M496.421 196.876C495.394 196.876 494.534 196.527 493.834 195.829C493.397 195.392 493.097 194.889 492.933 194.321C495.337 193.697 497.678 192.945 499.94 192.077C500.058 192.439 500.117 192.828 500.117 193.243C500.117 194.269 499.757 195.131 499.04 195.829C498.32 196.527 497.448 196.876 496.421 196.876Z" fill="#D9E0EA"/>
<path d="M105.461 127.804V91.616C105.461 87.2693 101.906 83.7147 97.5596 83.7147H31.6011C27.2548 83.7147 23.6991 87.2693 23.6991 91.616V137.219C23.6991 141.565 27.2548 145.121 31.6011 145.121H90.6556H97.5596H124.494L105.461 127.804Z" fill="#F9AB43"/>
<path d="M53.5538 109.335C53.5538 112.807 51.5371 115.62 49.0491 115.62C46.561 115.62 44.5443 112.807 44.5443 109.335C44.5443 105.864 46.561 103.049 49.0491 103.049C51.5371 103.049 53.5538 105.864 53.5538 109.335Z" fill="white"/>
<path d="M83.501 109.335C83.501 112.807 81.485 115.62 78.997 115.62C76.509 115.62 74.4923 112.807 74.4923 109.335C74.4923 105.864 76.509 103.049 78.997 103.049C81.485 103.049 83.501 105.864 83.501 109.335Z" fill="white"/>
<path d="M53.6996 126.911C55.2439 125.219 57.3923 123.889 59.5297 123.119C64.9396 121.168 70.1699 123.207 74.2912 126.911C75.3916 127.9 77.0263 126.276 75.921 125.281C71.3532 121.175 65.4267 118.763 59.3496 120.748C56.6844 121.619 53.9776 123.191 52.0699 125.281C51.071 126.376 52.6964 128.009 53.6996 126.911Z" fill="white"/>
<path d="M124.494 145.121H64.4517C81.681 133.479 92.6037 116.265 92.6037 97.0427C92.6037 92.4693 91.9717 88.0133 90.7983 83.7147H97.5597C101.906 83.7147 105.461 87.2693 105.461 91.616V127.804L124.494 145.121Z" fill="#E0A14C"/>
<path d="M403.781 400.88C386.058 418.603 357.322 418.603 339.601 400.88C321.877 383.157 321.877 354.421 339.601 336.699C357.322 318.975 386.058 318.975 403.781 336.699C421.505 354.421 421.505 383.157 403.781 400.88ZM333.39 330.489C312.238 351.641 312.238 385.935 333.39 407.089C354.544 428.241 388.838 428.241 409.992 407.089C431.144 385.936 431.144 351.641 409.992 330.489C388.838 309.336 354.544 309.336 333.39 330.489Z" fill="#EB725F"/>
<path d="M351.616 409.504C347.277 407.365 343.212 404.491 339.601 400.88C330.738 392.019 326.308 380.404 326.308 368.789C326.308 357.175 330.738 345.56 339.601 336.699C348.462 327.836 360.076 323.405 371.69 323.405C383.305 323.405 394.92 327.836 403.781 336.699C407.137 340.053 409.857 343.803 411.941 347.797C398.641 371.917 377.786 393.052 351.616 409.504Z" fill="#FFDD9E"/>
<path d="M371.69 414.172C364.809 414.172 357.925 412.616 351.616 409.504C377.786 393.052 398.641 371.917 411.941 347.797C415.362 354.353 417.074 361.572 417.074 368.789C417.074 380.404 412.644 392.019 403.781 400.88C394.92 409.741 383.305 414.172 371.69 414.172Z" fill="#EDD4A1"/>
<path d="M371.69 414.172C360.076 414.172 348.462 409.741 339.601 400.88C343.212 404.491 347.277 407.365 351.616 409.504C357.925 412.616 364.809 414.172 371.69 414.172Z" fill="#F19D8F"/>
<path d="M469.95 460.26L463.161 467.048L401.746 405.635L408.537 398.844L469.95 460.26Z" fill="#9FCE45"/>
<path d="M431.156 421.463L424.365 428.253L401.746 405.635L408.537 398.844L431.156 421.463Z" fill="#EB725F"/>
<path d="M345.269 350.127C346.992 345.16 350.766 341.144 355.304 338.353C359.872 335.584 365.296 334.097 370.721 334.099C376.148 334.085 381.574 335.568 386.144 338.34C390.685 341.127 394.458 345.151 396.172 350.127C391.21 348.451 387.013 347.124 382.845 346.313C378.71 345.475 374.718 345.091 370.721 345.071C366.722 345.079 362.728 345.459 358.592 346.3C354.42 347.108 350.222 348.441 345.269 350.127Z" fill="white"/>
</svg>
